<svg xmlns="http://www.w3.org/2000/svg" xmlns:xlink="http://www.w3.org/1999/xlink" contentStyleType="text/css" data-diagram-type="ACTIVITY" height="2732.2917px" preserveAspectRatio="none" style="width:281px;height:2732px;" version="1.1" viewBox="0 0 281 2732" width="281.25px" zoomAndPan="magnify"><?plantuml 1.2026.3beta6?><defs/><g><rect fill="none" height="88.4766" rx="4.1667" ry="4.1667" style="stroke:#2FA4E7;stroke-width:1.0417;" width="93.7504" x="91.8882" y="16.6667"/><path d="M137.7218,16.6667 L137.7218,34.3424 L127.3051,44.7591 L91.8882,44.7591" fill="none" style="stroke:#2FA4E7;stroke-width:1.0417;"/><text fill="#2FA4E7" font-family="'Verdana'" font-size="12.5" lengthAdjust="spacing" textLength="25.0002" x="100.2216" y="34.5194">&#29992;&#25143;</text><rect fill="none" height="37.4674" rx="4.1667" ry="4.1667" style="stroke:#2FA4E7;stroke-width:1.0417;" width="72.917" x="102.3049" y="55.1758"/><text fill="#2FA4E7" font-family="'Verdana'" font-size="12.5" lengthAdjust="spacing" textLength="50.0004" x="113.7632" y="78.2369">&#29992;&#25143;&#25805;&#20316;</text><rect fill="none" height="95.7682" rx="4.1667" ry="4.1667" style="stroke:#2FA4E7;stroke-width:1.0417;" width="192.1938" x="42.6665" y="115.5599"/><path d="M224.4437,115.5599 L224.4437,133.2357 L214.027,143.6523 L42.6665,143.6523" fill="none" style="stroke:#2FA4E7;stroke-width:1.0417;"/><text fill="#2FA4E7" font-family="'Verdana'" font-size="12.5" lengthAdjust="spacing" textLength="160.9438" x="50.9999" y="133.4127">TodoList&#27169;&#22359;(todolist.vue)</text><rect fill="none" height="37.4674" rx="4.1667" ry="4.1667" style="stroke:#2FA4E7;stroke-width:1.0417;" width="97.9172" x="89.8048" y="161.3607"/><text fill="#2FA4E7" font-family="'Verdana'" font-size="12.5" lengthAdjust="spacing" textLength="75.0006" x="101.2631" y="184.4218">&#20219;&#21153;&#21015;&#34920;&#31649;&#29702;</text><rect fill="none" height="95.7682" rx="4.1667" ry="4.1667" style="stroke:#2FA4E7;stroke-width:1.0417;" width="118.7506" x="79.3881" y="221.7448"/><path d="M175.4656,221.7448 L175.4656,239.4206 L165.0489,249.8372 L79.3881,249.8372" fill="none" style="stroke:#2FA4E7;stroke-width:1.0417;"/><text fill="#2FA4E7" font-family="'Verdana'" font-size="12.5" lengthAdjust="spacing" textLength="75.2441" x="87.7215" y="239.5976">TaskService</text><rect fill="none" height="37.4674" rx="4.1667" ry="4.1667" style="stroke:#2FA4E7;stroke-width:1.0417;" width="97.9172" x="89.8048" y="267.5456"/><text fill="#2FA4E7" font-family="'Verdana'" font-size="12.5" lengthAdjust="spacing" textLength="75.0006" x="101.2631" y="290.6067">&#20219;&#21153;&#26381;&#21153;&#25509;&#21475;</text><rect fill="none" height="95.7682" rx="4.1667" ry="4.1667" style="stroke:#2FA4E7;stroke-width:1.0417;" width="220.1418" x="28.6925" y="327.9297"/><path d="M238.4177,327.9297 L238.4177,345.6055 L228.001,356.0221 L28.6925,356.0221" fill="none" style="stroke:#2FA4E7;stroke-width:1.0417;"/><text fill="#2FA4E7" font-family="'Verdana'" font-size="12.5" lengthAdjust="spacing" textLength="188.8918" x="37.0259" y="345.7825">Pomodoro&#27169;&#22359;(pomodoro.vue)</text><rect fill="none" height="37.4674" rx="4.1667" ry="4.1667" style="stroke:#2FA4E7;stroke-width:1.0417;" width="72.917" x="102.3049" y="373.7305"/><text fill="#2FA4E7" font-family="'Verdana'" font-size="12.5" lengthAdjust="spacing" textLength="50.0004" x="113.7632" y="396.7916">&#35745;&#26102;&#24341;&#25806;</text><rect fill="none" height="95.7682" rx="4.1667" ry="4.1667" style="stroke:#2FA4E7;stroke-width:1.0417;" width="177.7834" x="49.8717" y="434.1146"/><path d="M217.2385,434.1146 L217.2385,451.7904 L206.8218,462.207 L49.8717,462.207" fill="none" style="stroke:#2FA4E7;stroke-width:1.0417;"/><text fill="#2FA4E7" font-family="'Verdana'" font-size="12.5" lengthAdjust="spacing" textLength="146.5334" x="58.2051" y="451.9674">Storage&#27169;&#22359;(storage.ts)</text><rect fill="none" height="37.4674" rx="4.1667" ry="4.1667" style="stroke:#2FA4E7;stroke-width:1.0417;" width="85.4171" x="96.0549" y="479.9154"/><text fill="#2FA4E7" font-family="'Verdana'" font-size="12.5" lengthAdjust="spacing" textLength="62.5005" x="107.5132" y="502.9765">&#25968;&#25454;&#25345;&#20037;&#21270;</text><rect fill="none" height="37.4674" rx="4.1667" ry="4.1667" style="stroke:#2FA4E7;stroke-width:1.0417;" width="85.4171" x="96.0549" y="550.7161"/><text fill="#2FA4E7" font-family="'Verdana'" font-size="12.5" lengthAdjust="spacing" textLength="62.5005" x="107.5132" y="573.7773">&#21452;&#20987;&#23376;&#20219;&#21153;</text><rect fill="none" height="37.4674" rx="4.1667" ry="4.1667" style="stroke:#2FA4E7;stroke-width:1.0417;" width="97.9172" x="89.8048" y="633.9844"/><text fill="#2FA4E7" font-family="'Verdana'" font-size="12.5" lengthAdjust="spacing" textLength="75.0006" x="101.2631" y="657.0455">&#25509;&#25910;&#21452;&#20987;&#20107;&#20214;</text><rect fill="none" height="37.4674" rx="4.1667" ry="4.1667" style="stroke:#2FA4E7;stroke-width:1.0417;" width="123.7291" x="76.8989" y="692.2852"/><text fill="#2FA4E7" font-family="'Verdana'" font-size="12.5" lengthAdjust="spacing" textLength="100.8124" x="88.3572" y="715.3463">&#33719;&#21462;&#30446;&#26631;&#23376;&#20219;&#21153;ID</text><rect fill="none" height="37.4674" rx="4.1667" ry="4.1667" style="stroke:#2FA4E7;stroke-width:1.0417;" width="157.6396" x="59.9436" y="775.5534"/><text fill="#2FA4E7" font-family="'Verdana'" font-size="12.5" lengthAdjust="spacing" textLength="134.7229" x="71.402" y="798.6145">setTaskActive(taskId)</text><rect fill="none" height="37.4674" rx="4.1667" ry="4.1667" style="stroke:#2FA4E7;stroke-width:1.0417;" width="135.4175" x="71.0547" y="833.8542"/><text fill="#2FA4E7" font-family="'Verdana'" font-size="12.5" lengthAdjust="spacing" textLength="112.5009" x="82.513" y="856.9153">&#37325;&#32622;&#21407;&#28608;&#27963;&#20219;&#21153;&#29366;&#24577;</text><rect fill="none" height="37.4674" rx="4.1667" ry="4.1667" style="stroke:#2FA4E7;stroke-width:1.0417;" width="172.9049" x="52.311" y="892.1549"/><text fill="#2FA4E7" font-family="'Verdana'" font-size="12.5" lengthAdjust="spacing" textLength="149.9883" x="63.7693" y="915.2161">&#26032;&#20219;&#21153;&#32622;&#20026;IN_PROGRESS</text><rect fill="none" height="37.4674" rx="4.1667" ry="4.1667" style="stroke:#2FA4E7;stroke-width:1.0417;" width="126.579" x="75.4739" y="950.4557"/><text fill="#2FA4E7" font-family="'Verdana'" font-size="12.5" lengthAdjust="spacing" textLength="103.6623" x="86.9323" y="973.5168">&#26356;&#26032;activeTaskId</text><rect fill="none" height="37.4674" rx="4.1667" ry="4.1667" style="stroke:#2FA4E7;stroke-width:1.0417;" width="122.9174" x="77.3047" y="1033.724"/><text fill="#2FA4E7" font-family="'Verdana'" font-size="12.5" lengthAdjust="spacing" textLength="100.0008" x="88.763" y="1056.7851">&#30417;&#21548;&#27963;&#21160;&#20219;&#21153;&#21464;&#26356;</text><rect fill="none" height="37.4674" rx="4.1667" ry="4.1667" style="stroke:#2FA4E7;stroke-width:1.0417;" width="147.9176" x="64.8046" y="1092.0247"/><text fill="#2FA4E7" font-family="'Verdana'" font-size="12.5" lengthAdjust="spacing" textLength="62.5005" x="76.263" y="1115.0859">&#35745;&#26102;&#22120;&#32622;&#20026;</text><text fill="#2FA4E7" font-family="'Verdana'" font-size="12.5" font-weight="700" lengthAdjust="spacing" textLength="37.5003" x="138.7634" y="1115.0859">&#21487;&#24320;&#22987;</text><text fill="#2FA4E7" font-family="'Verdana'" font-size="12.5" lengthAdjust="spacing" textLength="25.0002" x="176.2637" y="1115.0859">&#29366;&#24577;</text><rect fill="none" height="37.4674" rx="4.1667" ry="4.1667" style="stroke:#2FA4E7;stroke-width:1.0417;" width="122.9174" x="77.3047" y="1175.293"/><text fill="#2FA4E7" font-family="'Verdana'" font-size="12.5" lengthAdjust="spacing" textLength="100.0008" x="88.763" y="1198.3541">&#28857;&#20987;&#12304;&#24320;&#22987;&#12305;&#25353;&#38062;</text><rect fill="none" height="37.4674" rx="4.1667" ry="4.1667" style="stroke:#2FA4E7;stroke-width:1.0417;" width="147.2213" x="65.1528" y="1258.5612"/><text fill="#2FA4E7" font-family="'Verdana'" font-size="12.5" lengthAdjust="spacing" textLength="124.3047" x="76.6111" y="1281.6223">&#20999;&#25442;&#33267;WORKING&#38454;&#27573;</text><rect fill="none" height="37.4674" rx="4.1667" ry="4.1667" style="stroke:#2FA4E7;stroke-width:1.0417;" width="126.3231" x="75.6019" y="1316.862"/><text fill="#2FA4E7" font-family="'Verdana'" font-size="12.5" lengthAdjust="spacing" textLength="103.4064" x="87.0602" y="1339.9231">&#21551;&#21160;25&#20998;&#38047;&#20498;&#35745;&#26102;</text><rect fill="none" height="37.4674" rx="4.1667" ry="4.1667" style="stroke:#2FA4E7;stroke-width:1.0417;" width="110.4173" x="83.5548" y="1375.1628"/><text fill="#2FA4E7" font-family="'Verdana'" font-size="12.5" lengthAdjust="spacing" textLength="87.5007" x="95.0131" y="1398.2239">&#30058;&#33540;&#38047;&#21551;&#21160;&#23436;&#25104;</text><rect fill="none" height="37.4674" rx="4.1667" ry="4.1667" style="stroke:#2FA4E7;stroke-width:1.0417;" width="172.2215" x="52.6527" y="1433.4635"/><text fill="#2FA4E7" font-family="'Verdana'" font-size="12.5" lengthAdjust="spacing" textLength="149.3049" x="64.111" y="1456.5247">WORKING&#38454;&#27573;&#20498;&#35745;&#26102;&#32467;&#26463;</text><rect fill="none" height="37.4674" rx="4.1667" ry="4.1667" style="stroke:#2FA4E7;stroke-width:1.0417;" width="159.8431" x="58.8419" y="1516.7318"/><text fill="#2FA4E7" font-family="'Verdana'" font-size="12.5" lengthAdjust="spacing" textLength="136.9265" x="70.3002" y="1539.7929">&#25191;&#34892;onTimerComplete</text><rect fill="none" height="37.4674" rx="4.1667" ry="4.1667" style="stroke:#2FA4E7;stroke-width:1.0417;" width="244.1935" x="16.6667" y="1600"/><text fill="#2FA4E7" font-family="'Verdana'" font-size="12.5" lengthAdjust="spacing" textLength="221.2769" x="28.125" y="1623.0611">updateTaskPomodoroCount(taskId)</text><rect fill="none" height="37.4674" rx="4.1667" ry="4.1667" style="stroke:#2FA4E7;stroke-width:1.0417;" width="116.3438" x="80.5916" y="1658.3008"/><text fill="#2FA4E7" font-family="'Verdana'" font-size="12.5" lengthAdjust="spacing" textLength="93.4271" x="92.0499" y="1681.3619">&#23376;&#20219;&#21153;&#30058;&#33540;&#25968;+1</text><rect fill="none" height="37.4674" rx="4.1667" ry="4.1667" style="stroke:#2FA4E7;stroke-width:1.0417;" width="122.9174" x="77.3047" y="1741.569"/><text fill="#2FA4E7" font-family="'Verdana'" font-size="12.5" lengthAdjust="spacing" textLength="25.0002" x="88.763" y="1764.6301">&#21457;&#36215;</text><text fill="#2FA4E7" font-family="'Verdana'" font-size="12.5" font-weight="700" lengthAdjust="spacing" textLength="75.0006" x="113.7632" y="1764.6301">&#33258;&#21160;&#25968;&#25454;&#20445;&#23384;</text><rect fill="none" height="37.4674" rx="4.1667" ry="4.1667" style="stroke:#2FA4E7;stroke-width:1.0417;" width="152.3241" x="62.6014" y="1799.8698"/><text fill="#2FA4E7" font-family="'Verdana'" font-size="12.5" lengthAdjust="spacing" textLength="129.4074" x="74.0597" y="1822.9309">&#33258;&#21160;&#20999;&#25442;&#33267;BREAK&#38454;&#27573;</text><rect fill="none" height="37.4674" rx="4.1667" ry="4.1667" style="stroke:#2FA4E7;stroke-width:1.0417;" width="143.3704" x="67.0782" y="1858.1706"/><text fill="#2FA4E7" font-family="'Verdana'" font-size="12.5" lengthAdjust="spacing" textLength="120.4537" x="78.5366" y="1881.2317">&#21551;&#21160;5&#20998;&#38047;&#20241;&#24687;&#20498;&#35745;&#26102;</text><rect fill="none" height="37.4674" rx="4.1667" ry="4.1667" style="stroke:#2FA4E7;stroke-width:1.0417;" width="114.8238" x="81.3515" y="1916.4714"/><text fill="#2FA4E7" font-family="'Verdana'" font-size="12.5" lengthAdjust="spacing" textLength="91.9071" x="92.8099" y="1939.5325">BREAK&#38454;&#27573;&#32467;&#26463;</text><rect fill="none" height="37.4674" rx="4.1667" ry="4.1667" style="stroke:#2FA4E7;stroke-width:1.0417;" width="138.5912" x="69.4678" y="1974.7721"/><text fill="#2FA4E7" font-family="'Verdana'" font-size="12.5" lengthAdjust="spacing" textLength="115.6745" x="80.9262" y="1997.8333">&#20999;&#25442;&#33267;IDLE&#31354;&#38386;&#29366;&#24577;</text><rect fill="none" height="37.4674" rx="4.1667" ry="4.1667" style="stroke:#2FA4E7;stroke-width:1.0417;" width="122.9174" x="77.3047" y="2033.0729"/><text fill="#2FA4E7" font-family="'Verdana'" font-size="12.5" lengthAdjust="spacing" textLength="100.0008" x="88.763" y="2056.134">&#28165;&#31354;&#24403;&#21069;&#20851;&#32852;&#20219;&#21153;</text><rect fill="none" height="37.4674" rx="4.1667" ry="4.1667" style="stroke:#2FA4E7;stroke-width:1.0417;" width="161.8696" x="57.8286" y="2116.3411"/><text fill="#2FA4E7" font-family="'Verdana'" font-size="12.5" lengthAdjust="spacing" textLength="138.9529" x="69.287" y="2139.4023">&#37325;&#32622;activeTaskId&#20026;null</text><rect fill="none" height="37.4674" rx="4.1667" ry="4.1667" style="stroke:#2FA4E7;stroke-width:1.0417;" width="137.7364" x="69.8952" y="2174.6419"/><text fill="#2FA4E7" font-family="'Verdana'" font-size="12.5" lengthAdjust="spacing" textLength="114.8197" x="81.3536" y="2197.703">&#35302;&#21457;saveTasks&#25351;&#20196;</text><rect fill="none" height="37.4674" rx="4.1667" ry="4.1667" style="stroke:#2FA4E7;stroke-width:1.0417;" width="164.1949" x="56.666" y="2257.9102"/><text fill="#2FA4E7" font-family="'Verdana'" font-size="12.5" lengthAdjust="spacing" textLength="141.2783" x="68.1243" y="2280.9713">&#35843;&#29992;storage.saveTasks</text><rect fill="none" height="37.4674" rx="4.1667" ry="4.1667" style="stroke:#2FA4E7;stroke-width:1.0417;" width="122.9174" x="77.3047" y="2341.1784"/><text fill="#2FA4E7" font-family="'Verdana'" font-size="12.5" lengthAdjust="spacing" textLength="100.0008" x="88.763" y="2364.2395">&#21152;&#36733;&#29616;&#26377;&#23436;&#25972;&#25968;&#25454;</text><rect fill="none" height="37.4674" rx="4.1667" ry="4.1667" style="stroke:#2FA4E7;stroke-width:1.0417;" width="97.9172" x="89.8048" y="2399.4792"/><text fill="#2FA4E7" font-family="'Verdana'" font-size="12.5" lengthAdjust="spacing" textLength="75.0006" x="101.2631" y="2422.5403">&#26356;&#26032;&#20219;&#21153;&#25968;&#25454;</text><rect fill="none" height="37.4674" rx="4.1667" ry="4.1667" style="stroke:#2FA4E7;stroke-width:1.0417;" width="155.461" x="61.0329" y="2457.7799"/><text fill="#2FA4E7" font-family="'Verdana'" font-size="12.5" lengthAdjust="spacing" textLength="132.5443" x="72.4913" y="2480.8411">_atomicWrite&#21407;&#23376;&#20889;&#20837;</text><rect fill="none" height="37.4674" rx="4.1667" ry="4.1667" style="stroke:#2FA4E7;stroke-width:1.0417;" width="97.9172" x="89.8048" y="2516.0807"/><text fill="#2FA4E7" font-family="'Verdana'" font-size="12.5" lengthAdjust="spacing" textLength="75.0006" x="101.2631" y="2539.1418">&#20889;&#20837;&#20020;&#26102;&#25991;&#20214;</text><rect fill="none" height="37.4674" rx="4.1667" ry="4.1667" style="stroke:#2FA4E7;stroke-width:1.0417;" width="122.9174" x="77.3047" y="2574.3815"/><text fill="#2FA4E7" font-family="'Verdana'" font-size="12.5" lengthAdjust="spacing" textLength="100.0008" x="88.763" y="2597.4426">&#37325;&#21629;&#21517;&#35206;&#30422;&#21407;&#25991;&#20214;</text><rect fill="none" height="37.4674" rx="4.1667" ry="4.1667" style="stroke:#2FA4E7;stroke-width:1.0417;" width="110.4173" x="83.5548" y="2632.6823"/><text fill="#2FA4E7" font-family="'Verdana'" font-size="12.5" lengthAdjust="spacing" textLength="87.5007" x="95.0131" y="2655.7434">&#25968;&#25454;&#25345;&#20037;&#21270;&#23436;&#25104;</text><ellipse cx="138.7634" cy="2701.3997" fill="none" rx="10.4167" ry="10.4167" style="stroke:#033C73;stroke-width:1.0417;"/><line style="stroke:#033C73;stroke-width:2.6042;" x1="132.3184" x2="145.2084" y1="2694.9548" y2="2707.8447"/><line style="stroke:#033C73;stroke-width:2.6042;" x1="145.2084" x2="132.3184" y1="2694.9548" y2="2707.8447"/><line style="stroke:#2FA4E7;stroke-width:3.125;" x1="138.7634" x2="138.7634" y1="92.6432" y2="161.3607"/><polygon fill="#2FA4E7" points="134.5968,150.944,138.7634,161.3607,142.9301,150.944,138.7634,155.1107" style="stroke:#2FA4E7;stroke-width:1.0417;"/><line style="stroke:#2FA4E7;stroke-width:3.125;" x1="138.7634" x2="138.7634" y1="198.8281" y2="267.5456"/><polygon fill="#2FA4E7" points="134.5968,257.1289,138.7634,267.5456,142.9301,257.1289,138.7634,261.2956" style="stroke:#2FA4E7;stroke-width:1.0417;"/><line style="stroke:#2FA4E7;stroke-width:3.125;" x1="138.7634" x2="138.7634" y1="305.013" y2="373.7305"/><polygon fill="#2FA4E7" points="134.5968,363.3138,138.7634,373.7305,142.9301,363.3138,138.7634,367.4805" style="stroke:#2FA4E7;stroke-width:1.0417;"/><line style="stroke:#2FA4E7;stroke-width:3.125;" x1="138.7634" x2="138.7634" y1="411.1979" y2="479.9154"/><polygon fill="#2FA4E7" points="134.5968,469.4987,138.7634,479.9154,142.9301,469.4987,138.7634,473.6654" style="stroke:#2FA4E7;stroke-width:1.0417;"/><line style="stroke:#2FA4E7;stroke-width:3.125;" x1="138.7634" x2="138.7634" y1="517.3828" y2="550.7161"/><polygon fill="#2FA4E7" points="134.5968,540.2995,138.7634,550.7161,142.9301,540.2995,138.7634,544.4661" style="stroke:#2FA4E7;stroke-width:1.0417;"/><line style="stroke:#2FA4E7;stroke-width:3.125;" x1="138.7634" x2="138.7634" y1="588.1836" y2="633.9844"/><polygon fill="#2FA4E7" points="134.5968,623.5677,138.7634,633.9844,142.9301,623.5677,138.7634,627.7344" style="stroke:#2FA4E7;stroke-width:1.0417;"/><text fill="#343A40" font-family="'Verdana'" font-size="12.5" lengthAdjust="spacing" textLength="77.7163" x="148.1384" y="611.5885">TodoList&#27169;&#22359;</text><line style="stroke:#2FA4E7;stroke-width:3.125;" x1="138.7634" x2="138.7634" y1="671.4518" y2="692.2852"/><polygon fill="#2FA4E7" points="134.5968,681.8685,138.7634,692.2852,142.9301,681.8685,138.7634,686.0352" style="stroke:#2FA4E7;stroke-width:1.0417;"/><line style="stroke:#2FA4E7;stroke-width:3.125;" x1="138.7634" x2="138.7634" y1="729.7526" y2="775.5534"/><polygon fill="#2FA4E7" points="134.5968,765.1367,138.7634,775.5534,142.9301,765.1367,138.7634,769.3034" style="stroke:#2FA4E7;stroke-width:1.0417;"/><text fill="#343A40" font-family="'Verdana'" font-size="12.5" lengthAdjust="spacing" textLength="75.2441" x="148.1384" y="753.1576">TaskService</text><line style="stroke:#2FA4E7;stroke-width:3.125;" x1="138.7634" x2="138.7634" y1="813.0208" y2="833.8542"/><polygon fill="#2FA4E7" points="134.5968,823.4375,138.7634,833.8542,142.9301,823.4375,138.7634,827.6042" style="stroke:#2FA4E7;stroke-width:1.0417;"/><line style="stroke:#2FA4E7;stroke-width:3.125;" x1="138.7634" x2="138.7634" y1="871.3216" y2="892.1549"/><polygon fill="#2FA4E7" points="134.5968,881.7383,138.7634,892.1549,142.9301,881.7383,138.7634,885.9049" style="stroke:#2FA4E7;stroke-width:1.0417;"/><line style="stroke:#2FA4E7;stroke-width:3.125;" x1="138.7634" x2="138.7634" y1="929.6224" y2="950.4557"/><polygon fill="#2FA4E7" points="134.5968,940.0391,138.7634,950.4557,142.9301,940.0391,138.7634,944.2057" style="stroke:#2FA4E7;stroke-width:1.0417;"/><line style="stroke:#2FA4E7;stroke-width:3.125;" x1="138.7634" x2="138.7634" y1="987.9232" y2="1033.724"/><polygon fill="#2FA4E7" points="134.5968,1023.3073,138.7634,1033.724,142.9301,1023.3073,138.7634,1027.474" style="stroke:#2FA4E7;stroke-width:1.0417;"/><text fill="#343A40" font-family="'Verdana'" font-size="12.5" lengthAdjust="spacing" textLength="88.3791" x="148.1384" y="1011.3281">Pomodoro&#27169;&#22359;</text><line style="stroke:#2FA4E7;stroke-width:3.125;" x1="138.7634" x2="138.7634" y1="1071.1914" y2="1092.0247"/><polygon fill="#2FA4E7" points="134.5968,1081.6081,138.7634,1092.0247,142.9301,1081.6081,138.7634,1085.7747" style="stroke:#2FA4E7;stroke-width:1.0417;"/><line style="stroke:#2FA4E7;stroke-width:3.125;" x1="138.7634" x2="138.7634" y1="1129.4922" y2="1175.293"/><polygon fill="#2FA4E7" points="134.5968,1164.8763,138.7634,1175.293,142.9301,1164.8763,138.7634,1169.043" style="stroke:#2FA4E7;stroke-width:1.0417;"/><text fill="#343A40" font-family="'Verdana'" font-size="12.5" lengthAdjust="spacing" textLength="25.0002" x="148.1384" y="1152.8971">&#29992;&#25143;</text><line style="stroke:#2FA4E7;stroke-width:3.125;" x1="138.7634" x2="138.7634" y1="1212.7604" y2="1258.5612"/><polygon fill="#2FA4E7" points="134.5968,1248.1445,138.7634,1258.5612,142.9301,1248.1445,138.7634,1252.3112" style="stroke:#2FA4E7;stroke-width:1.0417;"/><text fill="#343A40" font-family="'Verdana'" font-size="12.5" lengthAdjust="spacing" textLength="88.3791" x="148.1384" y="1236.1654">Pomodoro&#27169;&#22359;</text><line style="stroke:#2FA4E7;stroke-width:3.125;" x1="138.7634" x2="138.7634" y1="1296.0286" y2="1316.862"/><polygon fill="#2FA4E7" points="134.5968,1306.4453,138.7634,1316.862,142.9301,1306.4453,138.7634,1310.612" style="stroke:#2FA4E7;stroke-width:1.0417;"/><line style="stroke:#2FA4E7;stroke-width:3.125;" x1="138.7634" x2="138.7634" y1="1354.3294" y2="1375.1628"/><polygon fill="#2FA4E7" points="134.5968,1364.7461,138.7634,1375.1628,142.9301,1364.7461,138.7634,1368.9128" style="stroke:#2FA4E7;stroke-width:1.0417;"/><line style="stroke:#2FA4E7;stroke-width:3.125;" x1="138.7634" x2="138.7634" y1="1412.6302" y2="1433.4635"/><polygon fill="#2FA4E7" points="134.5968,1423.0469,138.7634,1433.4635,142.9301,1423.0469,138.7634,1427.2135" style="stroke:#2FA4E7;stroke-width:1.0417;"/><line style="stroke:#2FA4E7;stroke-width:3.125;" x1="138.7634" x2="138.7634" y1="1470.931" y2="1516.7318"/><polygon fill="#2FA4E7" points="134.5968,1506.3151,138.7634,1516.7318,142.9301,1506.3151,138.7634,1510.4818" style="stroke:#2FA4E7;stroke-width:1.0417;"/><text fill="#343A40" font-family="'Verdana'" font-size="12.5" lengthAdjust="spacing" textLength="88.3791" x="148.1384" y="1494.3359">Pomodoro&#27169;&#22359;</text><line style="stroke:#2FA4E7;stroke-width:3.125;" x1="138.7634" x2="138.7634" y1="1554.1992" y2="1600"/><polygon fill="#2FA4E7" points="134.5968,1589.5833,138.7634,1600,142.9301,1589.5833,138.7634,1593.75" style="stroke:#2FA4E7;stroke-width:1.0417;"/><text fill="#343A40" font-family="'Verdana'" font-size="12.5" lengthAdjust="spacing" textLength="75.2441" x="148.1384" y="1577.6042">TaskService</text><line style="stroke:#2FA4E7;stroke-width:3.125;" x1="138.7634" x2="138.7634" y1="1637.4674" y2="1658.3008"/><polygon fill="#2FA4E7" points="134.5968,1647.8841,138.7634,1658.3008,142.9301,1647.8841,138.7634,1652.0508" style="stroke:#2FA4E7;stroke-width:1.0417;"/><line style="stroke:#2FA4E7;stroke-width:3.125;" x1="138.7634" x2="138.7634" y1="1695.7682" y2="1741.569"/><polygon fill="#2FA4E7" points="134.5968,1731.1523,138.7634,1741.569,142.9301,1731.1523,138.7634,1735.319" style="stroke:#2FA4E7;stroke-width:1.0417;"/><text fill="#343A40" font-family="'Verdana'" font-size="12.5" lengthAdjust="spacing" textLength="88.3791" x="148.1384" y="1719.1732">Pomodoro&#27169;&#22359;</text><line style="stroke:#2FA4E7;stroke-width:3.125;" x1="138.7634" x2="138.7634" y1="1779.0365" y2="1799.8698"/><polygon fill="#2FA4E7" points="134.5968,1789.4531,138.7634,1799.8698,142.9301,1789.4531,138.7634,1793.6198" style="stroke:#2FA4E7;stroke-width:1.0417;"/><line style="stroke:#2FA4E7;stroke-width:3.125;" x1="138.7634" x2="138.7634" y1="1837.3372" y2="1858.1706"/><polygon fill="#2FA4E7" points="134.5968,1847.7539,138.7634,1858.1706,142.9301,1847.7539,138.7634,1851.9206" style="stroke:#2FA4E7;stroke-width:1.0417;"/><line style="stroke:#2FA4E7;stroke-width:3.125;" x1="138.7634" x2="138.7634" y1="1895.638" y2="1916.4714"/><polygon fill="#2FA4E7" points="134.5968,1906.0547,138.7634,1916.4714,142.9301,1906.0547,138.7634,1910.2214" style="stroke:#2FA4E7;stroke-width:1.0417;"/><line style="stroke:#2FA4E7;stroke-width:3.125;" x1="138.7634" x2="138.7634" y1="1953.9388" y2="1974.7721"/><polygon fill="#2FA4E7" points="134.5968,1964.3555,138.7634,1974.7721,142.9301,1964.3555,138.7634,1968.5221" style="stroke:#2FA4E7;stroke-width:1.0417;"/><line style="stroke:#2FA4E7;stroke-width:3.125;" x1="138.7634" x2="138.7634" y1="2012.2396" y2="2033.0729"/><polygon fill="#2FA4E7" points="134.5968,2022.6563,138.7634,2033.0729,142.9301,2022.6563,138.7634,2026.8229" style="stroke:#2FA4E7;stroke-width:1.0417;"/><line style="stroke:#2FA4E7;stroke-width:3.125;" x1="138.7634" x2="138.7634" y1="2070.5404" y2="2116.3411"/><polygon fill="#2FA4E7" points="134.5968,2105.9245,138.7634,2116.3411,142.9301,2105.9245,138.7634,2110.0911" style="stroke:#2FA4E7;stroke-width:1.0417;"/><text fill="#343A40" font-family="'Verdana'" font-size="12.5" lengthAdjust="spacing" textLength="75.2441" x="148.1384" y="2093.9453">TaskService</text><line style="stroke:#2FA4E7;stroke-width:3.125;" x1="138.7634" x2="138.7634" y1="2153.8086" y2="2174.6419"/><polygon fill="#2FA4E7" points="134.5968,2164.2253,138.7634,2174.6419,142.9301,2164.2253,138.7634,2168.3919" style="stroke:#2FA4E7;stroke-width:1.0417;"/><line style="stroke:#2FA4E7;stroke-width:3.125;" x1="138.7634" x2="138.7634" y1="2212.1094" y2="2257.9102"/><polygon fill="#2FA4E7" points="134.5968,2247.4935,138.7634,2257.9102,142.9301,2247.4935,138.7634,2251.6602" style="stroke:#2FA4E7;stroke-width:1.0417;"/><text fill="#343A40" font-family="'Verdana'" font-size="12.5" lengthAdjust="spacing" textLength="88.3791" x="148.1384" y="2235.5143">Pomodoro&#27169;&#22359;</text><line style="stroke:#2FA4E7;stroke-width:3.125;" x1="138.7634" x2="138.7634" y1="2295.3776" y2="2341.1784"/><polygon fill="#2FA4E7" points="134.5968,2330.7617,138.7634,2341.1784,142.9301,2330.7617,138.7634,2334.9284" style="stroke:#2FA4E7;stroke-width:1.0417;"/><text fill="#343A40" font-family="'Verdana'" font-size="12.5" lengthAdjust="spacing" textLength="73.9077" x="148.1384" y="2318.7826">Storage&#27169;&#22359;</text><line style="stroke:#2FA4E7;stroke-width:3.125;" x1="138.7634" x2="138.7634" y1="2378.6458" y2="2399.4792"/><polygon fill="#2FA4E7" points="134.5968,2389.0625,138.7634,2399.4792,142.9301,2389.0625,138.7634,2393.2292" style="stroke:#2FA4E7;stroke-width:1.0417;"/><line style="stroke:#2FA4E7;stroke-width:3.125;" x1="138.7634" x2="138.7634" y1="2436.9466" y2="2457.7799"/><polygon fill="#2FA4E7" points="134.5968,2447.3633,138.7634,2457.7799,142.9301,2447.3633,138.7634,2451.5299" style="stroke:#2FA4E7;stroke-width:1.0417;"/><line style="stroke:#2FA4E7;stroke-width:3.125;" x1="138.7634" x2="138.7634" y1="2495.2474" y2="2516.0807"/><polygon fill="#2FA4E7" points="134.5968,2505.6641,138.7634,2516.0807,142.9301,2505.6641,138.7634,2509.8307" style="stroke:#2FA4E7;stroke-width:1.0417;"/><line style="stroke:#2FA4E7;stroke-width:3.125;" x1="138.7634" x2="138.7634" y1="2553.5482" y2="2574.3815"/><polygon fill="#2FA4E7" points="134.5968,2563.9648,138.7634,2574.3815,142.9301,2563.9648,138.7634,2568.1315" style="stroke:#2FA4E7;stroke-width:1.0417;"/><line style="stroke:#2FA4E7;stroke-width:3.125;" x1="138.7634" x2="138.7634" y1="2611.849" y2="2632.6823"/><polygon fill="#2FA4E7" points="134.5968,2622.2656,138.7634,2632.6823,142.9301,2622.2656,138.7634,2626.4323" style="stroke:#2FA4E7;stroke-width:1.0417;"/><line style="stroke:#2FA4E7;stroke-width:3.125;" x1="138.7634" x2="138.7634" y1="2670.1497" y2="2690.9831"/><polygon fill="#2FA4E7" points="134.5968,2680.5664,138.7634,2690.9831,142.9301,2680.5664,138.7634,2684.7331" style="stroke:#2FA4E7;stroke-width:1.0417;"/><?plantuml-src TLHTJzfG6Bxlhs3UJBjeeijk85dYr1YYKGCcNfe6cgqPK0B5csK9REFJyYsWGwDiKvYPbIY2yX5_Z3sdvMf_OQSzRIs4tP2UzxpFyvxtUTwN5zm7sajRN7GWvA4ftomRuZoCZoPUMa0Y1lZkt_vta2YWRxdJW8qQEAd8zOASl27yL81ZE8RrMQQaWmPCTAOidmYBnOeFi9WM1ySsuhCvRvjri-jCaCCyqnmwUj1nRYz4psXeiTS3gHf8LEHQGn9gKYuspa45Fphfm1xZeaSWy3Yj_6REGVRd66IBzQ9A0LOhwzUEvhAoK8ELDkYNO34pXdPoR81wJslW83xDSK4T2ajDc1OW7n4Vee0lAsWa7hoBI8tzUKMzt3L8DQJIfSn_6nPE2Il8yY3U0rSv_70RCVlMCggCZR2YHk116wUAtNsnrqP1ETC1sR9K5U1PtC3Rbp73ioueCqXpIc3HnJ5xz3I7Fktk6HGVnjFIG02PK_WOXgqUPf1IRHYEA4NBJIqo4CJxhdrZTyknkUfOSJgLoseBtLCguxPAgDOT5HVbITKyoFr1vAXhpSti8G8hxySg7pKmFqc2x3NeXq5zdoJrHo1AF44ArPS7rFvJE8UJdi9vo2U71M5oOP28m_GFENwxi-bOis-i3W_RKBXJBbG75jwW8KO6W701lqCfeBk2Ku30mqJEzkpVWkAV6ZGoCPQmZXGnEALU4PwSJduVJDRb6i_wjXal7LXYlNuFpT4Jl0lvtHIdIgnJBB4X7sToqV0UlmfDuAlv_sYIpSjt7PAKuvUeFpogukC9k3eaISKGDMm8zywnihWs9fkccjZFmyYrMJjJijxrimNsvVKLwNTtMBbv7gxxA8g0GH4aqo1wAqSEpFC_eW2UKlEeeMdnXJmUapMlaJLZguSRGrtLBr3VGGg3Wv2FYxrVa_MHcr_HjEbBRK3Kv975LvfBdSc3WPHfmkEaCXIb5gvlx8RsHwG7TocEzJAkdG33qMZZa6aWTWIYvmgL-Y7Ujv2Ki1p7susw1la1oANbYvXKBIjBgb-DDMhCAUrp_mC0?></g></svg>